<svg width="1192" height="28" viewBox="0 0 1192 28" fill="none" xmlns="http://www.w3.org/2000/svg">
<path d="M7.146 20.072C5.91 20.072 4.824 19.802 3.888 19.262C2.952 18.71 2.22 17.954 1.692 16.994C1.176 16.034 0.918 14.936 0.918 13.7C0.918 12.452 1.176 11.348 1.692 10.388C2.22 9.428 2.952 8.678 3.888 8.138C4.824 7.598 5.91 7.328 7.146 7.328C8.382 7.328 9.468 7.598 10.404 8.138C11.34 8.678 12.066 9.428 12.582 10.388C13.11 11.348 13.374 12.452 13.374 13.7C13.374 14.936 13.11 16.034 12.582 16.994C12.066 17.954 11.34 18.71 10.404 19.262C9.468 19.802 8.382 20.072 7.146 20.072ZM7.146 19.406C8.274 19.406 9.252 19.166 10.08 18.686C10.908 18.206 11.544 17.534 11.988 16.67C12.444 15.806 12.672 14.816 12.672 13.7C12.672 12.56 12.444 11.564 11.988 10.712C11.544 9.848 10.908 9.176 10.08 8.696C9.252 8.216 8.274 7.976 7.146 7.976C6.018 7.976 5.04 8.216 4.212 8.696C3.384 9.176 2.742 9.848 2.286 10.712C1.842 11.564 1.62 12.56 1.62 13.7C1.62 14.816 1.842 15.806 2.286 16.67C2.742 17.534 3.384 18.206 4.212 18.686C5.04 19.166 6.018 19.406 7.146 19.406ZM7.146 17.858C6.426 17.858 5.772 17.696 5.184 17.372C4.596 17.048 4.122 16.574 3.762 15.95C3.414 15.314 3.24 14.558 3.24 13.682C3.24 12.806 3.414 12.056 3.762 11.432C4.122 10.808 4.596 10.334 5.184 10.01C5.772 9.674 6.426 9.506 7.146 9.506C8.034 9.506 8.814 9.746 9.486 10.226C10.158 10.694 10.608 11.372 10.836 12.26H9.45C9.282 11.72 8.988 11.312 8.568 11.036C8.148 10.748 7.668 10.604 7.128 10.604C6.432 10.604 5.832 10.862 5.328 11.378C4.824 11.894 4.572 12.668 4.572 13.7C4.572 14.72 4.824 15.488 5.328 16.004C5.832 16.52 6.432 16.778 7.128 16.778C8.304 16.778 9.078 16.232 9.45 15.14H10.836C10.608 15.98 10.158 16.646 9.486 17.138C8.814 17.618 8.034 17.858 7.146 17.858ZM21.2687 20V18.938C22.1207 18.266 22.9247 17.588 23.6807 16.904C24.4487 16.208 25.1267 15.524 25.7147 14.852C26.3147 14.18 26.7827 13.52 27.1187 12.872C27.4667 12.224 27.6407 11.6 27.6407 11C27.6407 10.556 27.5627 10.142 27.4067 9.758C27.2627 9.374 27.0227 9.068 26.6867 8.84C26.3507 8.6 25.8947 8.48 25.3187 8.48C24.7667 8.48 24.3047 8.606 23.9327 8.858C23.5607 9.098 23.2787 9.422 23.0867 9.83C22.9067 10.238 22.8167 10.676 22.8167 11.144H21.3587C21.3587 10.316 21.5327 9.608 21.8807 9.02C22.2287 8.42 22.7027 7.964 23.3027 7.652C23.9027 7.34 24.5807 7.184 25.3367 7.184C26.4527 7.184 27.3647 7.502 28.0727 8.138C28.7927 8.762 29.1527 9.698 29.1527 10.946C29.1527 11.69 28.9667 12.428 28.5947 13.16C28.2227 13.88 27.7487 14.582 27.1727 15.266C26.5967 15.938 25.9787 16.568 25.3187 17.156C24.6707 17.744 24.0647 18.272 23.5007 18.74H29.5847V20H21.2687ZM37.0457 20.216C35.9297 20.216 34.9637 19.946 34.1477 19.406C33.3437 18.854 32.7257 18.092 32.2937 17.12C31.8617 16.136 31.6457 14.996 31.6457 13.7C31.6457 12.404 31.8617 11.27 32.2937 10.298C32.7257 9.314 33.3437 8.552 34.1477 8.012C34.9637 7.46 35.9297 7.184 37.0457 7.184C38.1617 7.184 39.1217 7.46 39.9257 8.012C40.7297 8.552 41.3477 9.314 41.7797 10.298C42.2117 11.27 42.4277 12.404 42.4277 13.7C42.4277 14.996 42.2117 16.136 41.7797 17.12C41.3477 18.092 40.7297 18.854 39.9257 19.406C39.1217 19.946 38.1617 20.216 37.0457 20.216ZM37.0457 18.884C37.7777 18.884 38.4317 18.68 39.0077 18.272C39.5957 17.852 40.0517 17.258 40.3757 16.49C40.7117 15.71 40.8797 14.78 40.8797 13.7C40.8797 12.62 40.7117 11.696 40.3757 10.928C40.0517 10.16 39.5957 9.572 39.0077 9.164C38.4317 8.744 37.7777 8.534 37.0457 8.534C36.3017 8.534 35.6417 8.744 35.0657 9.164C34.4897 9.572 34.0337 10.16 33.6977 10.928C33.3617 11.696 33.1937 12.62 33.1937 13.7C33.1937 14.78 33.3617 15.71 33.6977 16.49C34.0337 17.258 34.4897 17.852 35.0657 18.272C35.6417 18.68 36.3017 18.884 37.0457 18.884ZM44.7784 20V18.938C45.6304 18.266 46.4344 17.588 47.1904 16.904C47.9584 16.208 48.6364 15.524 49.2244 14.852C49.8244 14.18 50.2924 13.52 50.6284 12.872C50.9764 12.224 51.1504 11.6 51.1504 11C51.1504 10.556 51.0724 10.142 50.9164 9.758C50.7724 9.374 50.5324 9.068 50.1964 8.84C49.8604 8.6 49.4044 8.48 48.8284 8.48C48.2764 8.48 47.8144 8.606 47.4424 8.858C47.0704 9.098 46.7884 9.422 46.5964 9.83C46.4164 10.238 46.3264 10.676 46.3264 11.144H44.8684C44.8684 10.316 45.0424 9.608 45.3904 9.02C45.7384 8.42 46.2124 7.964 46.8124 7.652C47.4124 7.34 48.0904 7.184 48.8464 7.184C49.9624 7.184 50.8744 7.502 51.5824 8.138C52.3024 8.762 52.6624 9.698 52.6624 10.946C52.6624 11.69 52.4764 12.428 52.1044 13.16C51.7324 13.88 51.2584 14.582 50.6824 15.266C50.1064 15.938 49.4884 16.568 48.8284 17.156C48.1804 17.744 47.5744 18.272 47.0104 18.74H53.0944V20H44.7784ZM59.7412 20.216C58.9372 20.216 58.2112 20.072 57.5632 19.784C56.9152 19.484 56.3932 19.04 55.9972 18.452C55.6132 17.864 55.4092 17.132 55.3852 16.256H56.9152C56.9272 16.976 57.1792 17.6 57.6712 18.128C58.1632 18.644 58.8532 18.902 59.7412 18.902C60.6292 18.902 61.2952 18.656 61.7392 18.164C62.1952 17.672 62.4232 17.078 62.4232 16.382C62.4232 15.794 62.2792 15.314 61.9912 14.942C61.7152 14.57 61.3372 14.294 60.8572 14.114C60.3892 13.934 59.8732 13.844 59.3092 13.844H58.3732V12.566H59.3092C60.1252 12.566 60.7612 12.38 61.2172 12.008C61.6852 11.636 61.9192 11.114 61.9192 10.442C61.9192 9.878 61.7332 9.416 61.3612 9.056C61.0012 8.684 60.4612 8.498 59.7412 8.498C59.0452 8.498 58.4872 8.708 58.0672 9.128C57.6472 9.536 57.4132 10.052 57.3652 10.676H55.8352C55.8712 9.992 56.0512 9.386 56.3752 8.858C56.7112 8.33 57.1672 7.922 57.7432 7.634C58.3192 7.334 58.9852 7.184 59.7412 7.184C60.5572 7.184 61.2352 7.328 61.7752 7.616C62.3272 7.904 62.7412 8.288 63.0172 8.768C63.3052 9.248 63.4492 9.776 63.4492 10.352C63.4492 10.988 63.2752 11.57 62.9272 12.098C62.5792 12.614 62.0572 12.962 61.3612 13.142C62.1052 13.298 62.7232 13.652 63.2152 14.204C63.7072 14.756 63.9532 15.482 63.9532 16.382C63.9532 17.078 63.7912 17.72 63.4672 18.308C63.1552 18.884 62.6872 19.346 62.0632 19.694C61.4392 20.042 60.6652 20.216 59.7412 20.216ZM72.2429 20V7.4H73.7549V20H72.2429ZM76.9665 20V7.4H78.7305L83.2665 16.184L87.7665 7.4H89.5485V20H88.0365V10.1L83.8245 18.2H82.6905L78.4785 10.118V20H76.9665ZM91.9547 20L96.5987 7.4H98.2007L102.827 20H101.225L100.073 16.76H94.7087L93.5387 20H91.9547ZM95.1587 15.536H99.6227L97.3907 9.308L95.1587 15.536ZM108.048 20.216C106.908 20.216 106.014 19.898 105.366 19.262C104.718 18.626 104.394 17.744 104.394 16.616H105.924C105.924 17.252 106.08 17.786 106.392 18.218C106.704 18.65 107.25 18.866 108.03 18.866C108.786 18.866 109.308 18.656 109.596 18.236C109.896 17.816 110.046 17.294 110.046 16.67V7.4H111.558V16.67C111.558 17.786 111.246 18.656 110.622 19.28C110.01 19.904 109.152 20.216 108.048 20.216ZM114.762 20V7.4H116.274V20H114.762ZM130.315 20.216C129.079 20.216 128.011 19.946 127.111 19.406C126.223 18.854 125.533 18.092 125.041 17.12C124.549 16.136 124.303 14.996 124.303 13.7C124.303 12.416 124.549 11.288 125.041 10.316C125.533 9.332 126.223 8.564 127.111 8.012C128.011 7.46 129.079 7.184 130.315 7.184C131.755 7.184 132.925 7.532 133.825 8.228C134.737 8.912 135.319 9.872 135.571 11.108H133.897C133.705 10.328 133.309 9.704 132.709 9.236C132.121 8.756 131.323 8.516 130.315 8.516C129.415 8.516 128.629 8.726 127.957 9.146C127.285 9.554 126.763 10.148 126.391 10.928C126.031 11.696 125.851 12.62 125.851 13.7C125.851 14.78 126.031 15.71 126.391 16.49C126.763 17.258 127.285 17.852 127.957 18.272C128.629 18.68 129.415 18.884 130.315 18.884C131.323 18.884 132.121 18.656 132.709 18.2C133.309 17.732 133.705 17.114 133.897 16.346H135.571C135.319 17.558 134.737 18.506 133.825 19.19C132.925 19.874 131.755 20.216 130.315 20.216ZM144.009 20.216C142.773 20.216 141.687 19.946 140.751 19.406C139.827 18.854 139.101 18.086 138.573 17.102C138.057 16.118 137.799 14.984 137.799 13.7C137.799 12.416 138.057 11.288 138.573 10.316C139.101 9.332 139.827 8.564 140.751 8.012C141.687 7.46 142.773 7.184 144.009 7.184C145.257 7.184 146.343 7.46 147.267 8.012C148.203 8.564 148.929 9.332 149.445 10.316C149.961 11.288 150.219 12.416 150.219 13.7C150.219 14.984 149.961 16.118 149.445 17.102C148.929 18.086 148.203 18.854 147.267 19.406C146.343 19.946 145.257 20.216 144.009 20.216ZM144.009 18.884C144.933 18.884 145.743 18.68 146.439 18.272C147.147 17.852 147.693 17.258 148.077 16.49C148.473 15.71 148.671 14.78 148.671 13.7C148.671 12.62 148.473 11.696 148.077 10.928C147.693 10.16 147.147 9.572 146.439 9.164C145.743 8.744 144.933 8.534 144.009 8.534C143.085 8.534 142.269 8.744 141.561 9.164C140.865 9.572 140.319 10.16 139.923 10.928C139.539 11.696 139.347 12.62 139.347 13.7C139.347 14.78 139.539 15.71 139.923 16.49C140.319 17.258 140.865 17.852 141.561 18.272C142.269 18.68 143.085 18.884 144.009 18.884ZM152.94 20V7.4H160.608V8.642H154.452V13.07H159.69V14.294H154.452V20H152.94ZM163.095 20V7.4H170.763V8.642H164.607V13.07H169.845V14.294H164.607V20H163.095ZM173.25 20V7.4H181.044V8.642H174.762V13.034H180.504V14.258H174.762V18.758H181.044V20H173.25ZM183.95 20V7.4H191.744V8.642H185.462V13.034H191.204V14.258H185.462V18.758H191.744V20H183.95ZM193.355 22.142L194.399 18.164H195.965L194.399 22.142H193.355ZM202.901 20L207.545 7.4H209.147L213.773 20H212.171L211.019 16.76H205.655L204.485 20H202.901ZM206.105 15.536H210.569L208.337 9.308L206.105 15.536ZM216.097 20V7.04H217.609V20H216.097ZM220.627 20V7.04H222.139V20H220.627ZM230.461 20V11.072H231.829L231.955 12.782C232.231 12.194 232.651 11.726 233.215 11.378C233.779 11.03 234.475 10.856 235.303 10.856V12.44H234.889C234.361 12.44 233.875 12.536 233.431 12.728C232.987 12.908 232.633 13.22 232.369 13.664C232.105 14.108 231.973 14.72 231.973 15.5V20H230.461ZM238.458 9.092C238.158 9.092 237.906 8.996 237.702 8.804C237.51 8.6 237.414 8.348 237.414 8.048C237.414 7.76 237.51 7.52 237.702 7.328C237.906 7.136 238.158 7.04 238.458 7.04C238.746 7.04 238.992 7.136 239.196 7.328C239.4 7.52 239.502 7.76 239.502 8.048C239.502 8.348 239.4 8.6 239.196 8.804C238.992 8.996 238.746 9.092 238.458 9.092ZM237.702 20V11.072H239.214V20H237.702ZM245.914 17.192C245.41 17.192 244.948 17.126 244.528 16.994L243.628 17.84C243.76 17.936 243.922 18.02 244.114 18.092C244.318 18.152 244.606 18.212 244.978 18.272C245.35 18.32 245.872 18.374 246.544 18.434C247.744 18.518 248.602 18.794 249.118 19.262C249.634 19.73 249.892 20.342 249.892 21.098C249.892 21.614 249.748 22.106 249.46 22.574C249.184 23.042 248.752 23.426 248.164 23.726C247.588 24.026 246.844 24.176 245.932 24.176C245.128 24.176 244.414 24.068 243.79 23.852C243.166 23.648 242.68 23.33 242.332 22.898C241.984 22.478 241.81 21.944 241.81 21.296C241.81 20.96 241.9 20.594 242.08 20.198C242.26 19.814 242.596 19.448 243.088 19.1C242.824 18.992 242.596 18.878 242.404 18.758C242.224 18.626 242.056 18.482 241.9 18.326V17.912L243.43 16.4C242.722 15.8 242.368 15.008 242.368 14.024C242.368 13.436 242.506 12.902 242.782 12.422C243.058 11.942 243.46 11.564 243.988 11.288C244.516 11 245.158 10.856 245.914 10.856C246.43 10.856 246.898 10.928 247.318 11.072H250.612V12.206L248.938 12.278C249.286 12.782 249.46 13.364 249.46 14.024C249.46 14.612 249.316 15.146 249.028 15.626C248.752 16.106 248.35 16.49 247.822 16.778C247.306 17.054 246.67 17.192 245.914 17.192ZM245.914 15.95C246.55 15.95 247.054 15.788 247.426 15.464C247.81 15.128 248.002 14.648 248.002 14.024C248.002 13.412 247.81 12.944 247.426 12.62C247.054 12.284 246.55 12.116 245.914 12.116C245.266 12.116 244.75 12.284 244.366 12.62C243.994 12.944 243.808 13.412 243.808 14.024C243.808 14.648 243.994 15.128 244.366 15.464C244.75 15.788 245.266 15.95 245.914 15.95ZM243.286 21.152C243.286 21.752 243.538 22.196 244.042 22.484C244.546 22.784 245.176 22.934 245.932 22.934C246.676 22.934 247.27 22.772 247.714 22.448C248.17 22.124 248.398 21.692 248.398 21.152C248.398 20.768 248.242 20.432 247.93 20.144C247.618 19.868 247.042 19.706 246.202 19.658C245.542 19.61 244.972 19.55 244.492 19.478C244 19.742 243.676 20.024 243.52 20.324C243.364 20.636 243.286 20.912 243.286 21.152ZM252.858 20V7.04H254.37V12.602C254.67 12.05 255.096 11.624 255.648 11.324C256.2 11.012 256.8 10.856 257.448 10.856C258.48 10.856 259.308 11.18 259.932 11.828C260.556 12.464 260.868 13.448 260.868 14.78V20H259.374V14.942C259.374 13.082 258.624 12.152 257.124 12.152C256.344 12.152 255.69 12.434 255.162 12.998C254.634 13.55 254.37 14.342 254.37 15.374V20H252.858ZM267.227 20C266.411 20 265.769 19.802 265.301 19.406C264.833 19.01 264.599 18.296 264.599 17.264V12.35H263.051V11.072H264.599L264.797 8.93H266.111V11.072H268.739V12.35H266.111V17.264C266.111 17.828 266.225 18.212 266.453 18.416C266.681 18.608 267.083 18.704 267.659 18.704H268.595V20H267.227ZM274.62 20.216C273.552 20.216 272.664 19.946 271.956 19.406C271.248 18.866 270.834 18.134 270.714 17.21H272.262C272.358 17.678 272.604 18.086 273 18.434C273.408 18.77 273.954 18.938 274.638 18.938C275.274 18.938 275.742 18.806 276.042 18.542C276.342 18.266 276.492 17.942 276.492 17.57C276.492 17.03 276.294 16.67 275.898 16.49C275.514 16.31 274.968 16.148 274.26 16.004C273.78 15.908 273.3 15.77 272.82 15.59C272.34 15.41 271.938 15.158 271.614 14.834C271.29 14.498 271.128 14.06 271.128 13.52C271.128 12.74 271.416 12.104 271.992 11.612C272.58 11.108 273.372 10.856 274.368 10.856C275.316 10.856 276.09 11.096 276.69 11.576C277.302 12.044 277.656 12.716 277.752 13.592H276.258C276.198 13.136 276 12.782 275.664 12.53C275.34 12.266 274.902 12.134 274.35 12.134C273.81 12.134 273.39 12.248 273.09 12.476C272.802 12.704 272.658 13.004 272.658 13.376C272.658 13.736 272.844 14.018 273.216 14.222C273.6 14.426 274.116 14.6 274.764 14.744C275.316 14.864 275.838 15.014 276.33 15.194C276.834 15.362 277.242 15.62 277.554 15.968C277.878 16.304 278.04 16.796 278.04 17.444C278.052 18.248 277.746 18.914 277.122 19.442C276.51 19.958 275.676 20.216 274.62 20.216ZM286.043 20V11.072H287.411L287.537 12.782C287.813 12.194 288.233 11.726 288.797 11.378C289.361 11.03 290.057 10.856 290.885 10.856V12.44H290.471C289.943 12.44 289.457 12.536 289.013 12.728C288.569 12.908 288.215 13.22 287.951 13.664C287.687 14.108 287.555 14.72 287.555 15.5V20H286.043ZM296.803 20.216C295.951 20.216 295.195 20.024 294.535 19.64C293.875 19.244 293.353 18.698 292.969 18.002C292.597 17.306 292.411 16.484 292.411 15.536C292.411 14.6 292.597 13.784 292.969 13.088C293.341 12.38 293.857 11.834 294.517 11.45C295.189 11.054 295.963 10.856 296.839 10.856C297.703 10.856 298.447 11.054 299.071 11.45C299.707 11.834 300.193 12.344 300.529 12.98C300.865 13.616 301.033 14.3 301.033 15.032C301.033 15.164 301.027 15.296 301.015 15.428C301.015 15.56 301.015 15.71 301.015 15.878H293.905C293.941 16.562 294.097 17.132 294.373 17.588C294.661 18.032 295.015 18.368 295.435 18.596C295.867 18.824 296.323 18.938 296.803 18.938C297.427 18.938 297.949 18.794 298.369 18.506C298.789 18.218 299.095 17.828 299.287 17.336H300.781C300.541 18.164 300.079 18.854 299.395 19.406C298.723 19.946 297.859 20.216 296.803 20.216ZM296.803 12.134C296.083 12.134 295.441 12.356 294.877 12.8C294.325 13.232 294.007 13.868 293.923 14.708H299.539C299.503 13.904 299.227 13.274 298.711 12.818C298.195 12.362 297.559 12.134 296.803 12.134ZM306.997 20.216C305.929 20.216 305.041 19.946 304.333 19.406C303.625 18.866 303.211 18.134 303.091 17.21H304.639C304.735 17.678 304.981 18.086 305.377 18.434C305.785 18.77 306.331 18.938 307.015 18.938C307.651 18.938 308.119 18.806 308.419 18.542C308.719 18.266 308.869 17.942 308.869 17.57C308.869 17.03 308.671 16.67 308.275 16.49C307.891 16.31 307.345 16.148 306.637 16.004C306.157 15.908 305.677 15.77 305.197 15.59C304.717 15.41 304.315 15.158 303.991 14.834C303.667 14.498 303.505 14.06 303.505 13.52C303.505 12.74 303.793 12.104 304.369 11.612C304.957 11.108 305.749 10.856 306.745 10.856C307.693 10.856 308.467 11.096 309.067 11.576C309.679 12.044 310.033 12.716 310.129 13.592H308.635C308.575 13.136 308.377 12.782 308.041 12.53C307.717 12.266 307.279 12.134 306.727 12.134C306.187 12.134 305.767 12.248 305.467 12.476C305.179 12.704 305.035 13.004 305.035 13.376C305.035 13.736 305.221 14.018 305.593 14.222C305.977 14.426 306.493 14.6 307.141 14.744C307.693 14.864 308.215 15.014 308.707 15.194C309.211 15.362 309.619 15.62 309.931 15.968C310.255 16.304 310.417 16.796 310.417 17.444C310.429 18.248 310.123 18.914 309.499 19.442C308.887 19.958 308.053 20.216 306.997 20.216ZM317.131 20.216C316.279 20.216 315.523 20.024 314.863 19.64C314.203 19.244 313.681 18.698 313.297 18.002C312.925 17.306 312.739 16.484 312.739 15.536C312.739 14.6 312.925 13.784 313.297 13.088C313.669 12.38 314.185 11.834 314.845 11.45C315.517 11.054 316.291 10.856 317.167 10.856C318.031 10.856 318.775 11.054 319.399 11.45C320.035 11.834 320.521 12.344 320.857 12.98C321.193 13.616 321.361 14.3 321.361 15.032C321.361 15.164 321.355 15.296 321.343 15.428C321.343 15.56 321.343 15.71 321.343 15.878H314.233C314.269 16.562 314.425 17.132 314.701 17.588C314.989 18.032 315.343 18.368 315.763 18.596C316.195 18.824 316.651 18.938 317.131 18.938C317.755 18.938 318.277 18.794 318.697 18.506C319.117 18.218 319.423 17.828 319.615 17.336H321.109C320.869 18.164 320.407 18.854 319.723 19.406C319.051 19.946 318.187 20.216 317.131 20.216ZM317.131 12.134C316.411 12.134 315.769 12.356 315.205 12.8C314.653 13.232 314.335 13.868 314.251 14.708H319.867C319.831 13.904 319.555 13.274 319.039 12.818C318.523 12.362 317.887 12.134 317.131 12.134ZM323.905 20V11.072H325.273L325.399 12.782C325.675 12.194 326.095 11.726 326.659 11.378C327.223 11.03 327.919 10.856 328.747 10.856V12.44H328.333C327.805 12.44 327.319 12.536 326.875 12.728C326.431 12.908 326.077 13.22 325.813 13.664C325.549 14.108 325.417 14.72 325.417 15.5V20H323.905ZM333.558 20L330.174 11.072H331.758L334.44 18.542L337.14 11.072H338.688L335.304 20H333.558ZM344.467 20.216C343.615 20.216 342.859 20.024 342.199 19.64C341.539 19.244 341.017 18.698 340.633 18.002C340.261 17.306 340.075 16.484 340.075 15.536C340.075 14.6 340.261 13.784 340.633 13.088C341.005 12.38 341.521 11.834 342.181 11.45C342.853 11.054 343.627 10.856 344.503 10.856C345.367 10.856 346.111 11.054 346.735 11.45C347.371 11.834 347.857 12.344 348.193 12.98C348.529 13.616 348.697 14.3 348.697 15.032C348.697 15.164 348.691 15.296 348.679 15.428C348.679 15.56 348.679 15.71 348.679 15.878H341.569C341.605 16.562 341.761 17.132 342.037 17.588C342.325 18.032 342.679 18.368 343.099 18.596C343.531 18.824 343.987 18.938 344.467 18.938C345.091 18.938 345.613 18.794 346.033 18.506C346.453 18.218 346.759 17.828 346.951 17.336H348.445C348.205 18.164 347.743 18.854 347.059 19.406C346.387 19.946 345.523 20.216 344.467 20.216ZM344.467 12.134C343.747 12.134 343.105 12.356 342.541 12.8C341.989 13.232 341.671 13.868 341.587 14.708H347.203C347.167 13.904 346.891 13.274 346.375 12.818C345.859 12.362 345.223 12.134 344.467 12.134ZM355.291 20.216C354.403 20.216 353.623 20.012 352.951 19.604C352.291 19.196 351.775 18.638 351.403 17.93C351.043 17.222 350.863 16.418 350.863 15.518C350.863 14.618 351.049 13.82 351.421 13.124C351.793 12.416 352.309 11.864 352.969 11.468C353.629 11.06 354.409 10.856 355.309 10.856C356.041 10.856 356.689 11.006 357.253 11.306C357.817 11.606 358.255 12.026 358.567 12.566V7.04H360.079V20H358.711L358.567 18.524C358.279 18.956 357.865 19.346 357.325 19.694C356.785 20.042 356.107 20.216 355.291 20.216ZM355.453 18.902C356.053 18.902 356.581 18.764 357.037 18.488C357.505 18.2 357.865 17.804 358.117 17.3C358.381 16.796 358.513 16.208 358.513 15.536C358.513 14.864 358.381 14.276 358.117 13.772C357.865 13.268 357.505 12.878 357.037 12.602C356.581 12.314 356.053 12.17 355.453 12.17C354.865 12.17 354.337 12.314 353.869 12.602C353.413 12.878 353.053 13.268 352.789 13.772C352.537 14.276 352.411 14.864 352.411 15.536C352.411 16.208 352.537 16.796 352.789 17.3C353.053 17.804 353.413 18.2 353.869 18.488C354.337 18.764 354.865 18.902 355.453 18.902Z" fill="#A27B5C"/>
<g clip-path="url(#clip0_0_801)">
<path d="M856.284 20V8.642H852.522V7.4H861.558V8.642H857.796V20H856.284ZM866.251 20.216C865.399 20.216 864.643 20.024 863.983 19.64C863.323 19.244 862.801 18.698 862.417 18.002C862.045 17.306 861.859 16.484 861.859 15.536C861.859 14.6 862.045 13.784 862.417 13.088C862.789 12.38 863.305 11.834 863.965 11.45C864.637 11.054 865.411 10.856 866.287 10.856C867.151 10.856 867.895 11.054 868.519 11.45C869.155 11.834 869.641 12.344 869.977 12.98C870.313 13.616 870.481 14.3 870.481 15.032C870.481 15.164 870.475 15.296 870.463 15.428C870.463 15.56 870.463 15.71 870.463 15.878H863.353C863.389 16.562 863.545 17.132 863.821 17.588C864.109 18.032 864.463 18.368 864.883 18.596C865.315 18.824 865.771 18.938 866.251 18.938C866.875 18.938 867.397 18.794 867.817 18.506C868.237 18.218 868.543 17.828 868.735 17.336H870.229C869.989 18.164 869.527 18.854 868.843 19.406C868.171 19.946 867.307 20.216 866.251 20.216ZM866.251 12.134C865.531 12.134 864.889 12.356 864.325 12.8C863.773 13.232 863.455 13.868 863.371 14.708H868.987C868.951 13.904 868.675 13.274 868.159 12.818C867.643 12.362 867.007 12.134 866.251 12.134ZM873.025 20V11.072H874.393L874.519 12.782C874.795 12.194 875.215 11.726 875.779 11.378C876.343 11.03 877.039 10.856 877.867 10.856V12.44H877.453C876.925 12.44 876.439 12.536 875.995 12.728C875.551 12.908 875.197 13.22 874.933 13.664C874.669 14.108 874.537 14.72 874.537 15.5V20H873.025ZM880.104 20V11.072H881.472L881.58 12.368C881.868 11.888 882.252 11.516 882.732 11.252C883.212 10.988 883.752 10.856 884.352 10.856C885.06 10.856 885.666 11 886.17 11.288C886.686 11.576 887.082 12.014 887.358 12.602C887.67 12.062 888.096 11.636 888.636 11.324C889.188 11.012 889.782 10.856 890.418 10.856C891.486 10.856 892.338 11.18 892.974 11.828C893.61 12.464 893.928 13.448 893.928 14.78V20H892.434V14.942C892.434 14.018 892.248 13.322 891.876 12.854C891.504 12.386 890.97 12.152 890.274 12.152C889.554 12.152 888.954 12.434 888.474 12.998C888.006 13.55 887.772 14.342 887.772 15.374V20H886.26V14.942C886.26 14.018 886.074 13.322 885.702 12.854C885.33 12.386 884.796 12.152 884.1 12.152C883.392 12.152 882.798 12.434 882.318 12.998C881.85 13.55 881.616 14.342 881.616 15.374V20H880.104ZM900.166 20.216C899.098 20.216 898.21 19.946 897.502 19.406C896.794 18.866 896.38 18.134 896.26 17.21H897.808C897.904 17.678 898.15 18.086 898.546 18.434C898.954 18.77 899.5 18.938 900.184 18.938C900.82 18.938 901.288 18.806 901.588 18.542C901.888 18.266 902.038 17.942 902.038 17.57C902.038 17.03 901.84 16.67 901.444 16.49C901.06 16.31 900.514 16.148 899.806 16.004C899.326 15.908 898.846 15.77 898.366 15.59C897.886 15.41 897.484 15.158 897.16 14.834C896.836 14.498 896.674 14.06 896.674 13.52C896.674 12.74 896.962 12.104 897.538 11.612C898.126 11.108 898.918 10.856 899.914 10.856C900.862 10.856 901.636 11.096 902.236 11.576C902.848 12.044 903.202 12.716 903.298 13.592H901.804C901.744 13.136 901.546 12.782 901.21 12.53C900.886 12.266 900.448 12.134 899.896 12.134C899.356 12.134 898.936 12.248 898.636 12.476C898.348 12.704 898.204 13.004 898.204 13.376C898.204 13.736 898.39 14.018 898.762 14.222C899.146 14.426 899.662 14.6 900.31 14.744C900.862 14.864 901.384 15.014 901.876 15.194C902.38 15.362 902.788 15.62 903.1 15.968C903.424 16.304 903.586 16.796 903.586 17.444C903.598 18.248 903.292 18.914 902.668 19.442C902.056 19.958 901.222 20.216 900.166 20.216ZM914.559 20.216C913.815 20.216 913.197 20.09 912.705 19.838C912.213 19.586 911.847 19.25 911.607 18.83C911.367 18.41 911.247 17.954 911.247 17.462C911.247 16.55 911.595 15.848 912.291 15.356C912.987 14.864 913.935 14.618 915.135 14.618H917.547V14.51C917.547 13.73 917.343 13.142 916.935 12.746C916.527 12.338 915.981 12.134 915.297 12.134C914.709 12.134 914.199 12.284 913.767 12.584C913.347 12.872 913.083 13.298 912.975 13.862H911.427C911.487 13.214 911.703 12.668 912.075 12.224C912.459 11.78 912.933 11.444 913.497 11.216C914.061 10.976 914.661 10.856 915.297 10.856C916.545 10.856 917.481 11.192 918.105 11.864C918.741 12.524 919.059 13.406 919.059 14.51V20H917.709L917.619 18.398C917.367 18.902 916.995 19.334 916.503 19.694C916.023 20.042 915.375 20.216 914.559 20.216ZM914.793 18.938C915.369 18.938 915.861 18.788 916.269 18.488C916.689 18.188 917.007 17.798 917.223 17.318C917.439 16.838 917.547 16.334 917.547 15.806V15.788H915.261C914.373 15.788 913.743 15.944 913.371 16.256C913.011 16.556 912.831 16.934 912.831 17.39C912.831 17.858 912.999 18.236 913.335 18.524C913.683 18.8 914.169 18.938 914.793 18.938ZM921.868 20V11.072H923.236L923.326 12.674C923.614 12.11 924.028 11.666 924.568 11.342C925.108 11.018 925.72 10.856 926.404 10.856C927.46 10.856 928.3 11.18 928.924 11.828C929.56 12.464 929.878 13.448 929.878 14.78V20H928.366V14.942C928.366 13.082 927.598 12.152 926.062 12.152C925.294 12.152 924.652 12.434 924.136 12.998C923.632 13.55 923.38 14.342 923.38 15.374V20H921.868ZM936.758 20.216C935.87 20.216 935.09 20.012 934.418 19.604C933.758 19.196 933.242 18.638 932.87 17.93C932.51 17.222 932.33 16.418 932.33 15.518C932.33 14.618 932.516 13.82 932.888 13.124C933.26 12.416 933.776 11.864 934.436 11.468C935.096 11.06 935.876 10.856 936.776 10.856C937.508 10.856 938.156 11.006 938.72 11.306C939.284 11.606 939.722 12.026 940.034 12.566V7.04H941.546V20H940.178L940.034 18.524C939.746 18.956 939.332 19.346 938.792 19.694C938.252 20.042 937.574 20.216 936.758 20.216ZM936.92 18.902C937.52 18.902 938.048 18.764 938.504 18.488C938.972 18.2 939.332 17.804 939.584 17.3C939.848 16.796 939.98 16.208 939.98 15.536C939.98 14.864 939.848 14.276 939.584 13.772C939.332 13.268 938.972 12.878 938.504 12.602C938.048 12.314 937.52 12.17 936.92 12.17C936.332 12.17 935.804 12.314 935.336 12.602C934.88 12.878 934.52 13.268 934.256 13.772C934.004 14.276 933.878 14.864 933.878 15.536C933.878 16.208 934.004 16.796 934.256 17.3C934.52 17.804 934.88 18.2 935.336 18.488C935.804 18.764 936.332 18.902 936.92 18.902ZM955.471 20.216C954.235 20.216 953.167 19.946 952.267 19.406C951.379 18.854 950.689 18.092 950.197 17.12C949.705 16.136 949.459 14.996 949.459 13.7C949.459 12.416 949.705 11.288 950.197 10.316C950.689 9.332 951.379 8.564 952.267 8.012C953.167 7.46 954.235 7.184 955.471 7.184C956.911 7.184 958.081 7.532 958.981 8.228C959.893 8.912 960.475 9.872 960.727 11.108H959.053C958.861 10.328 958.465 9.704 957.865 9.236C957.277 8.756 956.479 8.516 955.471 8.516C954.571 8.516 953.785 8.726 953.113 9.146C952.441 9.554 951.919 10.148 951.547 10.928C951.187 11.696 951.007 12.62 951.007 13.7C951.007 14.78 951.187 15.71 951.547 16.49C951.919 17.258 952.441 17.852 953.113 18.272C953.785 18.68 954.571 18.884 955.471 18.884C956.479 18.884 957.277 18.656 957.865 18.2C958.465 17.732 958.861 17.114 959.053 16.346H960.727C960.475 17.558 959.893 18.506 958.981 19.19C958.081 19.874 956.911 20.216 955.471 20.216ZM967.418 20.216C966.578 20.216 965.822 20.024 965.15 19.64C964.478 19.256 963.944 18.716 963.548 18.02C963.164 17.312 962.972 16.484 962.972 15.536C962.972 14.588 963.17 13.766 963.566 13.07C963.962 12.362 964.496 11.816 965.168 11.432C965.852 11.048 966.614 10.856 967.454 10.856C968.294 10.856 969.05 11.048 969.722 11.432C970.394 11.816 970.922 12.362 971.306 13.07C971.702 13.766 971.9 14.588 971.9 15.536C971.9 16.484 971.702 17.312 971.306 18.02C970.91 18.716 970.37 19.256 969.686 19.64C969.014 20.024 968.258 20.216 967.418 20.216ZM967.418 18.92C967.934 18.92 968.414 18.794 968.858 18.542C969.302 18.29 969.662 17.912 969.938 17.408C970.214 16.904 970.352 16.28 970.352 15.536C970.352 14.792 970.214 14.168 969.938 13.664C969.674 13.16 969.32 12.782 968.876 12.53C968.432 12.278 967.958 12.152 967.454 12.152C966.938 12.152 966.458 12.278 966.014 12.53C965.57 12.782 965.21 13.16 964.934 13.664C964.658 14.168 964.52 14.792 964.52 15.536C964.52 16.28 964.658 16.904 964.934 17.408C965.21 17.912 965.564 18.29 965.996 18.542C966.44 18.794 966.914 18.92 967.418 18.92ZM974.542 20V11.072H975.91L976 12.674C976.288 12.11 976.702 11.666 977.242 11.342C977.782 11.018 978.394 10.856 979.078 10.856C980.134 10.856 980.974 11.18 981.598 11.828C982.234 12.464 982.552 13.448 982.552 14.78V20H981.04V14.942C981.04 13.082 980.272 12.152 978.736 12.152C977.968 12.152 977.326 12.434 976.81 12.998C976.306 13.55 976.054 14.342 976.054 15.374V20H974.542ZM989.433 20.216C988.545 20.216 987.765 20.012 987.093 19.604C986.433 19.196 985.917 18.638 985.545 17.93C985.185 17.222 985.005 16.418 985.005 15.518C985.005 14.618 985.191 13.82 985.563 13.124C985.935 12.416 986.451 11.864 987.111 11.468C987.771 11.06 988.551 10.856 989.451 10.856C990.183 10.856 990.831 11.006 991.395 11.306C991.959 11.606 992.397 12.026 992.709 12.566V7.04H994.221V20H992.853L992.709 18.524C992.421 18.956 992.007 19.346 991.467 19.694C990.927 20.042 990.249 20.216 989.433 20.216ZM989.595 18.902C990.195 18.902 990.723 18.764 991.179 18.488C991.647 18.2 992.007 17.804 992.259 17.3C992.523 16.796 992.655 16.208 992.655 15.536C992.655 14.864 992.523 14.276 992.259 13.772C992.007 13.268 991.647 12.878 991.179 12.602C990.723 12.314 990.195 12.17 989.595 12.17C989.007 12.17 988.479 12.314 988.011 12.602C987.555 12.878 987.195 13.268 986.931 13.772C986.679 14.276 986.553 14.864 986.553 15.536C986.553 16.208 986.679 16.796 986.931 17.3C987.195 17.804 987.555 18.2 988.011 18.488C988.479 18.764 989.007 18.902 989.595 18.902ZM998.144 9.092C997.844 9.092 997.592 8.996 997.388 8.804C997.196 8.6 997.1 8.348 997.1 8.048C997.1 7.76 997.196 7.52 997.388 7.328C997.592 7.136 997.844 7.04 998.144 7.04C998.432 7.04 998.678 7.136 998.882 7.328C999.086 7.52 999.188 7.76 999.188 8.048C999.188 8.348 999.086 8.6 998.882 8.804C998.678 8.996 998.432 9.092 998.144 9.092ZM997.388 20V11.072H998.9V20H997.388ZM1005.6 20C1004.78 20 1004.14 19.802 1003.67 19.406C1003.21 19.01 1002.97 18.296 1002.97 17.264V12.35H1001.42V11.072H1002.97L1003.17 8.93H1004.48V11.072H1007.11V12.35H1004.48V17.264C1004.48 17.828 1004.6 18.212 1004.83 18.416C1005.05 18.608 1005.46 18.704 1006.03 18.704H1006.97V20H1005.6ZM1010.49 9.092C1010.19 9.092 1009.94 8.996 1009.74 8.804C1009.54 8.6 1009.45 8.348 1009.45 8.048C1009.45 7.76 1009.54 7.52 1009.74 7.328C1009.94 7.136 1010.19 7.04 1010.49 7.04C1010.78 7.04 1011.03 7.136 1011.23 7.328C1011.43 7.52 1011.54 7.76 1011.54 8.048C1011.54 8.348 1011.43 8.6 1011.23 8.804C1011.03 8.996 1010.78 9.092 1010.49 9.092ZM1009.74 20V11.072H1011.25V20H1009.74ZM1018.49 20.216C1017.65 20.216 1016.89 20.024 1016.22 19.64C1015.55 19.256 1015.01 18.716 1014.62 18.02C1014.23 17.312 1014.04 16.484 1014.04 15.536C1014.04 14.588 1014.24 13.766 1014.64 13.07C1015.03 12.362 1015.57 11.816 1016.24 11.432C1016.92 11.048 1017.68 10.856 1018.52 10.856C1019.36 10.856 1020.12 11.048 1020.79 11.432C1021.46 11.816 1021.99 12.362 1022.38 13.07C1022.77 13.766 1022.97 14.588 1022.97 15.536C1022.97 16.484 1022.77 17.312 1022.38 18.02C1021.98 18.716 1021.44 19.256 1020.76 19.64C1020.08 20.024 1019.33 20.216 1018.49 20.216ZM1018.49 18.92C1019 18.92 1019.48 18.794 1019.93 18.542C1020.37 18.29 1020.73 17.912 1021.01 17.408C1021.28 16.904 1021.42 16.28 1021.42 15.536C1021.42 14.792 1021.28 14.168 1021.01 13.664C1020.74 13.16 1020.39 12.782 1019.95 12.53C1019.5 12.278 1019.03 12.152 1018.52 12.152C1018.01 12.152 1017.53 12.278 1017.08 12.53C1016.64 12.782 1016.28 13.16 1016 13.664C1015.73 14.168 1015.59 14.792 1015.59 15.536C1015.59 16.28 1015.73 16.904 1016 17.408C1016.28 17.912 1016.63 18.29 1017.07 18.542C1017.51 18.794 1017.98 18.92 1018.49 18.92ZM1025.61 20V11.072H1026.98L1027.07 12.674C1027.36 12.11 1027.77 11.666 1028.31 11.342C1028.85 11.018 1029.46 10.856 1030.15 10.856C1031.2 10.856 1032.04 11.18 1032.67 11.828C1033.3 12.464 1033.62 13.448 1033.62 14.78V20H1032.11V14.942C1032.11 13.082 1031.34 12.152 1029.81 12.152C1029.04 12.152 1028.4 12.434 1027.88 12.998C1027.38 13.55 1027.12 14.342 1027.12 15.374V20H1025.61ZM1039.87 20.216C1038.81 20.216 1037.92 19.946 1037.21 19.406C1036.5 18.866 1036.09 18.134 1035.97 17.21H1037.52C1037.61 17.678 1037.86 18.086 1038.25 18.434C1038.66 18.77 1039.21 18.938 1039.89 18.938C1040.53 18.938 1041 18.806 1041.3 18.542C1041.6 18.266 1041.75 17.942 1041.75 17.57C1041.75 17.03 1041.55 16.67 1041.15 16.49C1040.77 16.31 1040.22 16.148 1039.51 16.004C1039.03 15.908 1038.55 15.77 1038.07 15.59C1037.59 15.41 1037.19 15.158 1036.87 14.834C1036.54 14.498 1036.38 14.06 1036.38 13.52C1036.38 12.74 1036.67 12.104 1037.25 11.612C1037.83 11.108 1038.63 10.856 1039.62 10.856C1040.57 10.856 1041.34 11.096 1041.94 11.576C1042.56 12.044 1042.91 12.716 1043.01 13.592H1041.51C1041.45 13.136 1041.25 12.782 1040.92 12.53C1040.59 12.266 1040.16 12.134 1039.6 12.134C1039.06 12.134 1038.64 12.248 1038.34 12.476C1038.06 12.704 1037.91 13.004 1037.91 13.376C1037.91 13.736 1038.1 14.018 1038.47 14.222C1038.85 14.426 1039.37 14.6 1040.02 14.744C1040.57 14.864 1041.09 15.014 1041.58 15.194C1042.09 15.362 1042.5 15.62 1042.81 15.968C1043.13 16.304 1043.29 16.796 1043.29 17.444C1043.31 18.248 1043 18.914 1042.38 19.442C1041.76 19.958 1040.93 20.216 1039.87 20.216Z" fill="#A27B5C"/>
</g>
<g clip-path="url(#clip1_0_801)">
<path d="M1056.33 21.8V7.04H1057.84V21.8H1056.33Z" fill="#A27B5C"/>
</g>
<g clip-path="url(#clip2_0_801)">
<path d="M1071.33 20V7.4H1075.47C1076.46 7.4 1077.27 7.562 1077.9 7.886C1078.54 8.21 1079.01 8.648 1079.31 9.2C1079.62 9.752 1079.77 10.376 1079.77 11.072C1079.77 11.756 1079.62 12.374 1079.32 12.926C1079.02 13.478 1078.56 13.922 1077.92 14.258C1077.28 14.582 1076.47 14.744 1075.47 14.744H1072.84V20H1071.33ZM1072.84 13.466H1075.44C1076.44 13.466 1077.16 13.256 1077.58 12.836C1078.01 12.404 1078.23 11.816 1078.23 11.072C1078.23 10.316 1078.01 9.728 1077.58 9.308C1077.16 8.876 1076.44 8.66 1075.44 8.66H1072.84V13.466ZM1082.21 20V11.072H1083.57L1083.7 12.782C1083.98 12.194 1084.4 11.726 1084.96 11.378C1085.52 11.03 1086.22 10.856 1087.05 10.856V12.44H1086.63C1086.11 12.44 1085.62 12.536 1085.18 12.728C1084.73 12.908 1084.38 13.22 1084.11 13.664C1083.85 14.108 1083.72 14.72 1083.72 15.5V20H1082.21ZM1090.2 9.092C1089.9 9.092 1089.65 8.996 1089.45 8.804C1089.25 8.6 1089.16 8.348 1089.16 8.048C1089.16 7.76 1089.25 7.52 1089.45 7.328C1089.65 7.136 1089.9 7.04 1090.2 7.04C1090.49 7.04 1090.74 7.136 1090.94 7.328C1091.14 7.52 1091.25 7.76 1091.25 8.048C1091.25 8.348 1091.14 8.6 1090.94 8.804C1090.74 8.996 1090.49 9.092 1090.2 9.092ZM1089.45 20V11.072H1090.96V20H1089.45ZM1096.71 20L1093.32 11.072H1094.91L1097.59 18.542L1100.29 11.072H1101.84L1098.45 20H1096.71ZM1106.57 20.216C1105.83 20.216 1105.21 20.09 1104.72 19.838C1104.23 19.586 1103.86 19.25 1103.62 18.83C1103.38 18.41 1103.26 17.954 1103.26 17.462C1103.26 16.55 1103.61 15.848 1104.3 15.356C1105 14.864 1105.95 14.618 1107.15 14.618H1109.56V14.51C1109.56 13.73 1109.36 13.142 1108.95 12.746C1108.54 12.338 1107.99 12.134 1107.31 12.134C1106.72 12.134 1106.21 12.284 1105.78 12.584C1105.36 12.872 1105.1 13.298 1104.99 13.862H1103.44C1103.5 13.214 1103.72 12.668 1104.09 12.224C1104.47 11.78 1104.95 11.444 1105.51 11.216C1106.07 10.976 1106.67 10.856 1107.31 10.856C1108.56 10.856 1109.49 11.192 1110.12 11.864C1110.75 12.524 1111.07 13.406 1111.07 14.51V20H1109.72L1109.63 18.398C1109.38 18.902 1109.01 19.334 1108.52 19.694C1108.04 20.042 1107.39 20.216 1106.57 20.216ZM1106.81 18.938C1107.38 18.938 1107.87 18.788 1108.28 18.488C1108.7 18.188 1109.02 17.798 1109.24 17.318C1109.45 16.838 1109.56 16.334 1109.56 15.806V15.788H1107.27C1106.39 15.788 1105.76 15.944 1105.38 16.256C1105.02 16.556 1104.84 16.934 1104.84 17.39C1104.84 17.858 1105.01 18.236 1105.35 18.524C1105.7 18.8 1106.18 18.938 1106.81 18.938ZM1117.98 20.216C1117.13 20.216 1116.36 20.024 1115.68 19.64C1115.01 19.244 1114.47 18.698 1114.08 18.002C1113.69 17.294 1113.5 16.472 1113.5 15.536C1113.5 14.6 1113.69 13.784 1114.08 13.088C1114.47 12.38 1115.01 11.834 1115.68 11.45C1116.36 11.054 1117.13 10.856 1117.98 10.856C1119.04 10.856 1119.93 11.132 1120.65 11.684C1121.38 12.236 1121.84 12.974 1122.03 13.898H1120.49C1120.37 13.346 1120.07 12.92 1119.6 12.62C1119.14 12.308 1118.59 12.152 1117.97 12.152C1117.46 12.152 1116.99 12.278 1116.54 12.53C1116.1 12.782 1115.74 13.16 1115.46 13.664C1115.19 14.168 1115.05 14.792 1115.05 15.536C1115.05 16.28 1115.19 16.904 1115.46 17.408C1115.74 17.912 1116.1 18.296 1116.54 18.56C1116.99 18.812 1117.46 18.938 1117.97 18.938C1118.59 18.938 1119.14 18.788 1119.6 18.488C1120.07 18.176 1120.37 17.738 1120.49 17.174H1122.03C1121.85 18.074 1121.4 18.806 1120.67 19.37C1119.93 19.934 1119.04 20.216 1117.98 20.216ZM1125.66 23.96L1127.87 19.136H1127.35L1123.8 11.072H1125.44L1128.39 18.02L1131.53 11.072H1133.09L1127.24 23.96H1125.66ZM1140.62 20V7.4H1144.76C1145.74 7.4 1146.55 7.562 1147.19 7.886C1147.83 8.21 1148.29 8.648 1148.59 9.2C1148.91 9.752 1149.06 10.376 1149.06 11.072C1149.06 11.756 1148.91 12.374 1148.61 12.926C1148.31 13.478 1147.84 13.922 1147.21 14.258C1146.57 14.582 1145.76 14.744 1144.76 14.744H1142.13V20H1140.62ZM1142.13 13.466H1144.72C1145.73 13.466 1146.45 13.256 1146.87 12.836C1147.3 12.404 1147.51 11.816 1147.51 11.072C1147.51 10.316 1147.3 9.728 1146.87 9.308C1146.45 8.876 1145.73 8.66 1144.72 8.66H1142.13V13.466ZM1155.04 20.216C1154.2 20.216 1153.44 20.024 1152.77 19.64C1152.1 19.256 1151.56 18.716 1151.17 18.02C1150.78 17.312 1150.59 16.484 1150.59 15.536C1150.59 14.588 1150.79 13.766 1151.18 13.07C1151.58 12.362 1152.11 11.816 1152.79 11.432C1153.47 11.048 1154.23 10.856 1155.07 10.856C1155.91 10.856 1156.67 11.048 1157.34 11.432C1158.01 11.816 1158.54 12.362 1158.92 13.07C1159.32 13.766 1159.52 14.588 1159.52 15.536C1159.52 16.484 1159.32 17.312 1158.92 18.02C1158.53 18.716 1157.99 19.256 1157.3 19.64C1156.63 20.024 1155.88 20.216 1155.04 20.216ZM1155.04 18.92C1155.55 18.92 1156.03 18.794 1156.48 18.542C1156.92 18.29 1157.28 17.912 1157.56 17.408C1157.83 16.904 1157.97 16.28 1157.97 15.536C1157.97 14.792 1157.83 14.168 1157.56 13.664C1157.29 13.16 1156.94 12.782 1156.49 12.53C1156.05 12.278 1155.58 12.152 1155.07 12.152C1154.56 12.152 1154.08 12.278 1153.63 12.53C1153.19 12.782 1152.83 13.16 1152.55 13.664C1152.28 14.168 1152.14 14.792 1152.14 15.536C1152.14 16.28 1152.28 16.904 1152.55 17.408C1152.83 17.912 1153.18 18.29 1153.61 18.542C1154.06 18.794 1154.53 18.92 1155.04 18.92ZM1162.16 20V7.04H1163.67V20H1162.16ZM1167.61 9.092C1167.31 9.092 1167.06 8.996 1166.85 8.804C1166.66 8.6 1166.56 8.348 1166.56 8.048C1166.56 7.76 1166.66 7.52 1166.85 7.328C1167.06 7.136 1167.31 7.04 1167.61 7.04C1167.9 7.04 1168.14 7.136 1168.35 7.328C1168.55 7.52 1168.65 7.76 1168.65 8.048C1168.65 8.348 1168.55 8.6 1168.35 8.804C1168.14 8.996 1167.9 9.092 1167.61 9.092ZM1166.85 20V11.072H1168.36V20H1166.85ZM1175.64 20.216C1174.79 20.216 1174.02 20.024 1173.34 19.64C1172.66 19.244 1172.13 18.698 1171.73 18.002C1171.35 17.294 1171.16 16.472 1171.16 15.536C1171.16 14.6 1171.35 13.784 1171.73 13.088C1172.13 12.38 1172.66 11.834 1173.34 11.45C1174.02 11.054 1174.79 10.856 1175.64 10.856C1176.7 10.856 1177.58 11.132 1178.3 11.684C1179.04 12.236 1179.5 12.974 1179.69 13.898H1178.14C1178.02 13.346 1177.73 12.92 1177.26 12.62C1176.79 12.308 1176.25 12.152 1175.62 12.152C1175.12 12.152 1174.64 12.278 1174.2 12.53C1173.76 12.782 1173.4 13.16 1173.12 13.664C1172.84 14.168 1172.71 14.792 1172.71 15.536C1172.71 16.28 1172.84 16.904 1173.12 17.408C1173.4 17.912 1173.76 18.296 1174.2 18.56C1174.64 18.812 1175.12 18.938 1175.62 18.938C1176.25 18.938 1176.79 18.788 1177.26 18.488C1177.73 18.176 1178.02 17.738 1178.14 17.174H1179.69C1179.51 18.074 1179.05 18.806 1178.32 19.37C1177.59 19.934 1176.7 20.216 1175.64 20.216ZM1183.31 23.96L1185.53 19.136H1185.01L1181.46 11.072H1183.1L1186.05 18.02L1189.18 11.072H1190.75L1184.9 23.96H1183.31Z" fill="#A27B5C"/>
</g>
<defs>
<clipPath id="clip0_0_801">
<rect width="193" height="25" fill="white" transform="translate(852)"/>
</clipPath>
<clipPath id="clip1_0_801">
<rect width="5" height="25" fill="white" transform="translate(1055)"/>
</clipPath>
<clipPath id="clip2_0_801">
<rect width="122" height="25" fill="white" transform="translate(1070)"/>
</clipPath>
</defs>
</svg>
