<svg width="126" height="17" viewBox="0 0 126 17" fill="none" xmlns="http://www.w3.org/2000/svg">
<path d="M0.341308 13V0.399999H4.21131C6.43131 0.399999 8.06331 0.963999 9.10731 2.092C10.1633 3.22 10.6913 4.768 10.6913 6.736C10.6913 8.668 10.1633 10.198 9.10731 11.326C8.06331 12.442 6.43131 13 4.21131 13H0.341308ZM1.85331 11.74H4.17531C5.39931 11.74 6.37131 11.542 7.09131 11.146C7.82331 10.738 8.34531 10.162 8.65731 9.418C8.96931 8.662 9.12531 7.768 9.12531 6.736C9.12531 5.68 8.96931 4.774 8.65731 4.018C8.34531 3.262 7.82331 2.68 7.09131 2.272C6.37131 1.864 5.39931 1.66 4.17531 1.66H1.85331V11.74ZM17.3385 13.216C16.4865 13.216 15.7305 13.024 15.0705 12.64C14.4105 12.244 13.8885 11.698 13.5045 11.002C13.1325 10.306 12.9465 9.484 12.9465 8.536C12.9465 7.6 13.1325 6.784 13.5045 6.088C13.8765 5.38 14.3925 4.834 15.0525 4.45C15.7245 4.054 16.4985 3.856 17.3745 3.856C18.2385 3.856 18.9825 4.054 19.6065 4.45C20.2425 4.834 20.7285 5.344 21.0645 5.98C21.4005 6.616 21.5685 7.3 21.5685 8.032C21.5685 8.164 21.5625 8.296 21.5505 8.428C21.5505 8.56 21.5505 8.71 21.5505 8.878H14.4405C14.4765 9.562 14.6325 10.132 14.9085 10.588C15.1965 11.032 15.5505 11.368 15.9705 11.596C16.4025 11.824 16.8585 11.938 17.3385 11.938C17.9625 11.938 18.4845 11.794 18.9045 11.506C19.3245 11.218 19.6305 10.828 19.8225 10.336H21.3165C21.0765 11.164 20.6145 11.854 19.9305 12.406C19.2585 12.946 18.3945 13.216 17.3385 13.216ZM17.3385 5.134C16.6185 5.134 15.9765 5.356 15.4125 5.8C14.8605 6.232 14.5425 6.868 14.4585 7.708H20.0745C20.0385 6.904 19.7625 6.274 19.2465 5.818C18.7305 5.362 18.0945 5.134 17.3385 5.134ZM24.1126 13V0.0399995H25.6246V13H24.1126ZM29.5608 2.092C29.2608 2.092 29.0088 1.996 28.8048 1.804C28.6128 1.6 28.5168 1.348 28.5168 1.048C28.5168 0.76 28.6128 0.519999 28.8048 0.327999C29.0088 0.135999 29.2608 0.0399995 29.5608 0.0399995C29.8488 0.0399995 30.0948 0.135999 30.2988 0.327999C30.5028 0.519999 30.6048 0.76 30.6048 1.048C30.6048 1.348 30.5028 1.6 30.2988 1.804C30.0948 1.996 29.8488 2.092 29.5608 2.092ZM28.8048 13V4.072H30.3168V13H28.8048ZM36.0634 13L32.6794 4.072H34.2634L36.9454 11.542L39.6454 4.072H41.1934L37.8094 13H36.0634ZM46.9731 13.216C46.1211 13.216 45.3651 13.024 44.7051 12.64C44.0451 12.244 43.5231 11.698 43.1391 11.002C42.7671 10.306 42.5811 9.484 42.5811 8.536C42.5811 7.6 42.7671 6.784 43.1391 6.088C43.5111 5.38 44.0271 4.834 44.6871 4.45C45.3591 4.054 46.1331 3.856 47.0091 3.856C47.8731 3.856 48.6171 4.054 49.2411 4.45C49.8771 4.834 50.3631 5.344 50.6991 5.98C51.0351 6.616 51.2031 7.3 51.2031 8.032C51.2031 8.164 51.1971 8.296 51.1851 8.428C51.1851 8.56 51.1851 8.71 51.1851 8.878H44.0751C44.1111 9.562 44.2671 10.132 44.5431 10.588C44.8311 11.032 45.1851 11.368 45.6051 11.596C46.0371 11.824 46.4931 11.938 46.9731 11.938C47.5971 11.938 48.1191 11.794 48.5391 11.506C48.9591 11.218 49.2651 10.828 49.4571 10.336H50.9511C50.7111 11.164 50.2491 11.854 49.5651 12.406C48.8931 12.946 48.0291 13.216 46.9731 13.216ZM46.9731 5.134C46.2531 5.134 45.6111 5.356 45.0471 5.8C44.4951 6.232 44.1771 6.868 44.0931 7.708H49.7091C49.6731 6.904 49.3971 6.274 48.8811 5.818C48.3651 5.362 47.7291 5.134 46.9731 5.134ZM53.7472 13V4.072H55.1152L55.2412 5.782C55.5172 5.194 55.9372 4.726 56.5012 4.378C57.0652 4.03 57.7612 3.856 58.5892 3.856V5.44H58.1752C57.6472 5.44 57.1612 5.536 56.7172 5.728C56.2732 5.908 55.9192 6.22 55.6552 6.664C55.3912 7.108 55.2592 7.72 55.2592 8.5V13H53.7472ZM61.7982 16.96L64.0122 12.136H63.4902L59.9442 4.072H61.5822L64.5342 11.02L67.6662 4.072H69.2322L63.3822 16.96H61.7982ZM82.4859 13.216C81.2499 13.216 80.1639 12.946 79.2279 12.406C78.3039 11.854 77.5779 11.086 77.0499 10.102C76.5339 9.118 76.2759 7.984 76.2759 6.7C76.2759 5.416 76.5339 4.288 77.0499 3.316C77.5779 2.332 78.3039 1.564 79.2279 1.012C80.1639 0.46 81.2499 0.184 82.4859 0.184C83.7339 0.184 84.8199 0.46 85.7439 1.012C86.6799 1.564 87.4059 2.332 87.9219 3.316C88.4379 4.288 88.6959 5.416 88.6959 6.7C88.6959 7.984 88.4379 9.118 87.9219 10.102C87.4059 11.086 86.6799 11.854 85.7439 12.406C84.8199 12.946 83.7339 13.216 82.4859 13.216ZM82.4859 11.884C83.4099 11.884 84.2199 11.68 84.9159 11.272C85.6239 10.852 86.1699 10.258 86.5539 9.49C86.9499 8.71 87.1479 7.78 87.1479 6.7C87.1479 5.62 86.9499 4.696 86.5539 3.928C86.1699 3.16 85.6239 2.572 84.9159 2.164C84.2199 1.744 83.4099 1.534 82.4859 1.534C81.5619 1.534 80.7459 1.744 80.0379 2.164C79.3419 2.572 78.7959 3.16 78.3999 3.928C78.0159 4.696 77.8239 5.62 77.8239 6.7C77.8239 7.78 78.0159 8.71 78.3999 9.49C78.7959 10.258 79.3419 10.852 80.0379 11.272C80.7459 11.68 81.5619 11.884 82.4859 11.884ZM91.3271 13V4.072H92.6951L92.8211 5.782C93.0971 5.194 93.5171 4.726 94.0811 4.378C94.6451 4.03 95.3411 3.856 96.1691 3.856V5.44H95.7551C95.2271 5.44 94.7411 5.536 94.2971 5.728C93.8531 5.908 93.4991 6.22 93.2351 6.664C92.9711 7.108 92.8391 7.72 92.8391 8.5V13H91.3271ZM102.122 13.216C101.234 13.216 100.454 13.012 99.7822 12.604C99.1222 12.196 98.6062 11.638 98.2342 10.93C97.8742 10.222 97.6942 9.418 97.6942 8.518C97.6942 7.618 97.8802 6.82 98.2522 6.124C98.6242 5.416 99.1402 4.864 99.8002 4.468C100.46 4.06 101.24 3.856 102.14 3.856C102.872 3.856 103.52 4.006 104.084 4.306C104.648 4.606 105.086 5.026 105.398 5.566V0.0399995H106.91V13H105.542L105.398 11.524C105.11 11.956 104.696 12.346 104.156 12.694C103.616 13.042 102.938 13.216 102.122 13.216ZM102.284 11.902C102.884 11.902 103.412 11.764 103.868 11.488C104.336 11.2 104.696 10.804 104.948 10.3C105.212 9.796 105.344 9.208 105.344 8.536C105.344 7.864 105.212 7.276 104.948 6.772C104.696 6.268 104.336 5.878 103.868 5.602C103.412 5.314 102.884 5.17 102.284 5.17C101.696 5.17 101.168 5.314 100.7 5.602C100.244 5.878 99.8842 6.268 99.6202 6.772C99.3682 7.276 99.2422 7.864 99.2422 8.536C99.2422 9.208 99.3682 9.796 99.6202 10.3C99.8842 10.804 100.244 11.2 100.7 11.488C101.168 11.764 101.696 11.902 102.284 11.902ZM113.929 13.216C113.077 13.216 112.321 13.024 111.661 12.64C111.001 12.244 110.479 11.698 110.095 11.002C109.723 10.306 109.537 9.484 109.537 8.536C109.537 7.6 109.723 6.784 110.095 6.088C110.467 5.38 110.983 4.834 111.643 4.45C112.315 4.054 113.089 3.856 113.965 3.856C114.829 3.856 115.573 4.054 116.197 4.45C116.833 4.834 117.319 5.344 117.655 5.98C117.991 6.616 118.159 7.3 118.159 8.032C118.159 8.164 118.153 8.296 118.141 8.428C118.141 8.56 118.141 8.71 118.141 8.878H111.031C111.067 9.562 111.223 10.132 111.499 10.588C111.787 11.032 112.141 11.368 112.561 11.596C112.993 11.824 113.449 11.938 113.929 11.938C114.553 11.938 115.075 11.794 115.495 11.506C115.915 11.218 116.221 10.828 116.413 10.336H117.907C117.667 11.164 117.205 11.854 116.521 12.406C115.849 12.946 114.985 13.216 113.929 13.216ZM113.929 5.134C113.209 5.134 112.567 5.356 112.003 5.8C111.451 6.232 111.133 6.868 111.049 7.708H116.665C116.629 6.904 116.353 6.274 115.837 5.818C115.321 5.362 114.685 5.134 113.929 5.134ZM120.703 13V4.072H122.071L122.197 5.782C122.473 5.194 122.893 4.726 123.457 4.378C124.021 4.03 124.717 3.856 125.545 3.856V5.44H125.131C124.603 5.44 124.117 5.536 123.673 5.728C123.229 5.908 122.875 6.22 122.611 6.664C122.347 7.108 122.215 7.72 122.215 8.5V13H120.703Z" fill="white"/>
</svg>
